<svg width="20" height="20" viewBox="0 0 20 20" fill="none" xmlns="http://www.w3.org/2000/svg">
<path d="M13 10.0002C13 10.5936 12.8241 11.1736 12.4944 11.667C12.1648 12.1603 11.6962 12.5448 11.148 12.7719C10.5999 12.9989 9.99667 13.0584 9.41473 12.9426C8.83279 12.8268 8.29824 12.5411 7.87868 12.1216C7.45912 11.702 7.1734 11.1675 7.05764 10.5855C6.94189 10.0036 7.0013 9.40037 7.22836 8.85219C7.45542 8.30402 7.83994 7.83548 8.33329 7.50584C8.82664 7.17619 9.40666 7.00024 10 7.00024C10.7949 7.00272 11.5565 7.31958 12.1186 7.88166C12.6807 8.44373 12.9975 9.20536 13 10.0002V10.0002ZM19.375 5.87524V14.1252C19.375 15.5176 18.8219 16.853 17.8373 17.8376C16.8527 18.8221 15.5174 19.3752 14.125 19.3752H5.875C4.48261 19.3752 3.14726 18.8221 2.16269 17.8376C1.17812 16.853 0.625 15.5176 0.625 14.1252V5.87524C0.625 4.48286 1.17812 3.1475 2.16269 2.16293C3.14726 1.17837 4.48261 0.625244 5.875 0.625244H14.125C15.5174 0.625244 16.8527 1.17837 17.8373 2.16293C18.8219 3.1475 19.375 4.48286 19.375 5.87524V5.87524ZM14.5 10.0002C14.5 9.11023 14.2361 8.2402 13.7416 7.50018C13.2471 6.76016 12.5443 6.18338 11.7221 5.84279C10.8998 5.50219 9.99501 5.41308 9.12209 5.58671C8.24918 5.76034 7.44736 6.18893 6.81802 6.81826C6.18868 7.4476 5.7601 8.24942 5.58647 9.12234C5.41283 9.99525 5.50195 10.9001 5.84254 11.7223C6.18314 12.5446 6.75991 13.2474 7.49993 13.7419C8.23995 14.2363 9.10998 14.5002 10 14.5002C11.1935 14.5002 12.3381 14.0261 13.182 13.1822C14.0259 12.3383 14.5 11.1937 14.5 10.0002ZM16 5.12524C16 4.90274 15.934 4.68523 15.8104 4.50023C15.6868 4.31522 15.5111 4.17103 15.3055 4.08588C15.1 4.00073 14.8738 3.97845 14.6555 4.02186C14.4373 4.06527 14.2368 4.17241 14.0795 4.32975C13.9222 4.48708 13.815 4.68754 13.7716 4.90577C13.7282 5.124 13.7505 5.3502 13.8356 5.55576C13.9208 5.76133 14.065 5.93703 14.25 6.06065C14.435 6.18426 14.6525 6.25024 14.875 6.25024C15.1734 6.25024 15.4595 6.13172 15.6705 5.92074C15.8815 5.70976 16 5.42361 16 5.12524Z" fill="#C22A40"/>
</svg>
