<svg width="175" height="19" viewBox="0 0 175 19" fill="none" xmlns="http://www.w3.org/2000/svg">
<path d="M4.47529 17.2866C3.15525 16.5668 2.05534 15.4806 1.29913 14.1498C0.502326 12.796 0.0549936 11.2531 0 9.66913C0.00559145 8.09758 0.403455 6.55417 1.15504 5.18843C1.91126 3.85769 3.01116 2.77144 4.33121 2.0517C5.76117 1.30511 7.35071 0.945571 8.95138 1.00667C10.3961 0.968884 11.8298 1.27545 13.1417 1.90264C14.3833 2.40161 15.4433 3.28921 16.1738 4.44151L12.8495 7.42919C12.4654 6.84115 11.9499 6.35761 11.3467 6.01957C10.7435 5.68153 10.0704 5.49897 9.38442 5.48737C8.88076 5.43938 8.3731 5.50838 7.89851 5.68932C7.42392 5.87026 6.99439 6.15858 6.64129 6.53322C5.9875 7.3835 5.63117 8.43769 5.63033 9.52417C5.59741 10.0667 5.6699 10.6105 5.84354 11.1235C6.01718 11.6365 6.28844 12.1083 6.64129 12.511C6.95342 12.9545 7.36808 13.3098 7.8473 13.5446C8.32653 13.7794 8.85502 13.8861 9.38442 13.855C10.0735 13.8601 10.7525 13.6847 11.3584 13.3451C11.9643 13.0056 12.4772 12.513 12.8495 11.9132L16.3147 15.0499C15.4771 16.0962 14.4463 16.9593 13.2826 17.5888C11.9669 18.2002 10.5377 18.5061 9.09546 18.4847C7.49131 18.4243 5.91729 18.0161 4.47529 17.2866Z" fill="#C22A41"/>
<path d="M35.2276 1.30566V18.0335H29.7414V11.7601H24.6882V17.8837H19.2019V1.30566H24.6882V7.2802H29.7414V1.30566H35.2276Z" fill="#C22A41"/>
<path d="M39.2706 1.30566H44.7569V18.0335H39.2706V1.30566Z" fill="#C22A41"/>
<path d="M48.655 1.30566H54.1413V13.7027H61.5038V18.0344H48.7991V1.30566H48.655Z" fill="#C22A41"/>
<path d="M64.3918 1.30566H69.878V18.0335H64.3918V1.30566Z" fill="#C22A41"/>
<path d="M88.0571 1.375H89.2683V18H88.0571V1.375ZM76.9421 18H75.7308V1.375H76.9421V18ZM88.1996 10.0913H76.7996V9.0225H88.1996V10.0913ZM103.197 18.1187C101.962 18.1187 100.814 17.9129 99.7528 17.5013C98.7078 17.0738 97.7895 16.48 96.9978 15.72C96.222 14.9442 95.6203 14.0496 95.1928 13.0363C94.7653 12.0071 94.5516 10.8908 94.5516 9.6875C94.5516 8.48417 94.7653 7.37583 95.1928 6.3625C95.6203 5.33333 96.222 4.43875 96.9978 3.67875C97.7895 2.90292 98.7078 2.30917 99.7528 1.8975C100.814 1.47 101.962 1.25625 103.197 1.25625C104.432 1.25625 105.572 1.47 106.617 1.8975C107.677 2.30917 108.596 2.895 109.372 3.655C110.147 4.415 110.749 5.30958 111.177 6.33875C111.62 7.35208 111.842 8.46833 111.842 9.6875C111.842 10.9067 111.62 12.0308 111.177 13.06C110.749 14.0733 110.147 14.96 109.372 15.72C108.596 16.48 107.677 17.0738 106.617 17.5013C105.572 17.9129 104.432 18.1187 103.197 18.1187ZM103.197 17.0025C104.257 17.0025 105.239 16.8204 106.142 16.4563C107.044 16.0921 107.828 15.5775 108.493 14.9125C109.158 14.2475 109.672 13.4717 110.037 12.585C110.417 11.6983 110.607 10.7325 110.607 9.6875C110.607 8.62667 110.417 7.66083 110.037 6.79C109.672 5.90333 109.158 5.1275 108.493 4.4625C107.828 3.7975 107.044 3.28292 106.142 2.91875C105.239 2.55458 104.257 2.3725 103.197 2.3725C102.136 2.3725 101.154 2.55458 100.252 2.91875C99.3491 3.28292 98.5574 3.7975 97.8766 4.4625C97.2116 5.1275 96.6891 5.90333 96.3091 6.79C95.9449 7.66083 95.7628 8.62667 95.7628 9.6875C95.7628 10.7325 95.9449 11.6983 96.3091 12.585C96.6891 13.4717 97.2116 14.2475 97.8766 14.9125C98.5574 15.5775 99.3491 16.0921 100.252 16.4563C101.154 16.8204 102.136 17.0025 103.197 17.0025ZM120.062 18V2.4675H114.077V1.375H127.258V2.4675H121.273V18H120.062ZM132.4 9.0225H141.401V10.0913H132.4V9.0225ZM132.542 16.9075H142.802V18H131.331V1.375H142.446V2.4675H132.542V16.9075ZM148.287 18V1.375H149.498V16.9075H159.07V18H148.287ZM167.41 18.1187C166.175 18.1187 165.003 17.9129 163.895 17.5013C162.802 17.0738 161.955 16.5275 161.354 15.8625L161.9 14.96C162.47 15.5458 163.246 16.0446 164.227 16.4563C165.225 16.8521 166.278 17.05 167.386 17.05C168.494 17.05 169.397 16.9075 170.094 16.6225C170.806 16.3217 171.329 15.9258 171.661 15.435C172.009 14.9442 172.184 14.3979 172.184 13.7963C172.184 13.0838 171.994 12.5138 171.614 12.0863C171.234 11.6588 170.735 11.3183 170.117 11.065C169.5 10.8117 168.827 10.5979 168.099 10.4238C167.37 10.2496 166.634 10.0675 165.89 9.8775C165.146 9.67167 164.465 9.41042 163.847 9.09375C163.23 8.77708 162.731 8.34958 162.351 7.81125C161.987 7.25708 161.805 6.54458 161.805 5.67375C161.805 4.88208 162.011 4.15375 162.422 3.48875C162.834 2.82375 163.475 2.28542 164.346 1.87375C165.217 1.46208 166.333 1.25625 167.695 1.25625C168.613 1.25625 169.516 1.39083 170.402 1.66C171.305 1.92917 172.073 2.29333 172.706 2.7525L172.255 3.72625C171.558 3.25125 170.806 2.90292 169.999 2.68125C169.207 2.44375 168.439 2.325 167.695 2.325C166.634 2.325 165.755 2.47542 165.059 2.77625C164.362 3.07708 163.847 3.48083 163.515 3.9875C163.182 4.47833 163.016 5.0325 163.016 5.65C163.016 6.3625 163.198 6.9325 163.562 7.36C163.942 7.7875 164.441 8.12792 165.059 8.38125C165.676 8.63458 166.357 8.84833 167.101 9.0225C167.845 9.19667 168.582 9.38667 169.31 9.5925C170.038 9.7825 170.711 10.0358 171.329 10.3525C171.946 10.6692 172.445 11.0967 172.825 11.635C173.205 12.1733 173.395 12.87 173.395 13.725C173.395 14.5008 173.181 15.2292 172.754 15.91C172.326 16.575 171.669 17.1133 170.782 17.525C169.912 17.9208 168.787 18.1187 167.41 18.1187Z" fill="#22323D"/>
</svg>
